<?xml version="1.0" standalone="no"?>
<!DOCTYPE svg PUBLIC "-//W3C//DTD SVG 20010904//EN"
 "http://www.w3.org/TR/2001/REC-SVG-20010904/DTD/svg10.dtd">
<svg version="1.0" xmlns="http://www.w3.org/2000/svg"
 width="700.000000pt" height="700.000000pt" viewBox="0 0 700.000000 700.000000"
 preserveAspectRatio="xMidYMid meet">
<metadata>
Created by potrace 1.14, written by Peter Selinger 2001-2017
</metadata>
<g transform="translate(0.000000,700.000000) scale(0.100000,-0.100000)"
fill="#000000" stroke="none">
<path d="M3280 6994 c-19 -2 -84 -9 -145 -14 -410 -40 -846 -169 -1225 -362
-343 -176 -628 -387 -908 -672 -561 -572 -883 -1252 -984 -2081 -7 -56 -12
-217 -12 -365 0 -268 7 -362 45 -588 96 -575 348 -1138 716 -1597 115 -144
339 -373 483 -494 537 -451 1157 -715 1885 -803 135 -16 590 -16 735 1 512 58
1002 222 1426 478 635 383 1136 957 1422 1628 255 599 339 1259 242 1898 -93
610 -340 1176 -726 1662 -116 147 -431 459 -574 569 -523 404 -1101 642 -1750
722 -117 15 -553 27 -630 18z m690 -903 c944 -163 1711 -799 2040 -1691 40
-110 100 -328 115 -417 l7 -43 -436 0 c-379 0 -436 2 -436 15 0 33 -75 236
-123 335 -244 496 -698 843 -1242 950 -233 46 -529 36 -768 -25 -375 -96 -718
-325 -958 -640 -151 -198 -263 -447 -321 -715 -20 -92 -22 -133 -22 -340 0
-207 2 -247 22 -340 97 -447 341 -823 703 -1083 112 -80 339 -196 464 -236
447 -144 918 -110 1330 96 257 129 481 321 647 553 86 120 185 315 229 448
l33 102 439 0 439 0 -7 -42 c-15 -90 -75 -308 -115 -418 -329 -892 -1097
-1529 -2040 -1691 -179 -30 -554 -38 -741 -15 -668 84 -1269 411 -1701 926
-669 797 -798 1929 -326 2863 236 467 608 854 1068 1112 272 153 618 267 936
309 168 23 599 15 764 -13z m-238 -1755 c426 -82 727 -467 705 -901 -23 -433
-345 -774 -779 -826 -419 -49 -826 231 -939 646 -18 65 -22 107 -22 225 0 129
3 155 26 233 51 165 122 281 244 398 122 117 265 192 423 224 88 18 252 18
342 1z"/>
</g>
</svg>
