<?xml version="1.0" encoding="UTF-8"?>
<svg width="1358px" height="160px" viewBox="0 0 1358 160" version="1.1" xmlns="http://www.w3.org/2000/svg" xmlns:xlink="http://www.w3.org/1999/xlink">
    <title>logo inverted</title>
    <g id="Welcome" stroke="none" stroke-width="1" fill="none" fill-rule="evenodd">
        <g id="Artboard" transform="translate(-102.000000, -363.000000)" fill="#FFFFFF">
            <g id="logo-inverted" transform="translate(102.000000, 363.000000)">
                <g id="ClinicalInvestigator" transform="translate(200.000000, 32.000000)" fill-rule="nonzero">
                    <path d="M44.2063724,93 C50.1005554,93 55.7249342,92.1160477 61.0795089,90.3481432 C66.4340836,88.5802387 70.8132125,86.0928382 74.2168956,82.8859416 L74.2168956,82.8859416 L68.115171,69.071618 C64.1303712,72.0318302 60.2493423,74.1903183 56.4720842,75.5470822 C52.6948261,76.9038462 48.7307805,77.5822281 44.5799474,77.5822281 C36.6103479,77.5822281 30.5086232,75.0537135 26.2747735,69.9966844 C22.0409237,64.9396552 19.9239988,57.5596817 19.9239988,47.8567639 C19.9239988,38.2360743 22.0409237,30.9177719 26.2747735,25.9018568 C30.5086232,20.8859416 36.6103479,18.3779841 44.5799474,18.3779841 C48.7307805,18.3779841 52.6948261,19.056366 56.4720842,20.41313 C60.2493423,21.7698939 64.1303712,23.928382 68.115171,26.8885942 L68.115171,26.8885942 L74.2168956,13.0742706 C70.8132125,9.86737401 66.4340836,7.37997347 61.0795089,5.61206897 C55.7249342,3.84416446 50.1005554,2.9602122 44.2063724,2.9602122 C35.2405729,2.9602122 27.4162526,4.81034483 20.7334113,8.51061008 C14.05057,12.2108753 8.92429114,17.4529178 5.35457469,24.2367374 C1.78485823,31.020557 0,38.8938992 0,47.8567639 C0,56.9018568 1.78485823,64.816313 5.35457469,71.6001326 C8.92429114,78.3839523 14.05057,83.6465517 20.7334113,87.387931 C27.4162526,91.1293103 35.2405729,93 44.2063724,93 Z M105.472669,91.8899204 L105.472669,1.11007958 L86.6693949,1.11007958 L86.6693949,91.8899204 L105.472669,91.8899204 Z M140.215142,17.5145889 L140.215142,0 L120.166618,0 L120.166618,17.5145889 L140.215142,17.5145889 Z M139.592517,91.8899204 L139.592517,29.3554377 L120.789243,29.3554377 L120.789243,91.8899204 L139.592517,91.8899204 Z M173.712365,91.8899204 L173.712365,56.8607427 C173.712365,52.4204244 174.957615,48.8846154 177.448115,46.2533156 C179.938614,43.6220159 183.259281,42.306366 187.410114,42.306366 C190.896814,42.306366 193.449576,43.3136605 195.068401,45.3282493 C196.687226,47.3428382 197.496638,50.5291777 197.496638,54.8872679 L197.496638,54.8872679 L197.496638,91.8899204 L216.299912,91.8899204 L216.299912,54.0238727 C216.299912,36.5092838 208.828413,27.7519894 193.885414,27.7519894 C189.319497,27.7519894 185.230927,28.7387268 181.619702,30.7122016 C178.008477,32.6856764 175.08214,35.5225464 172.84069,39.2228117 L172.84069,39.2228117 L171.59544,29.3554377 L153.912891,29.3554377 C154.577024,34.6180371 154.909091,40.5795756 154.909091,47.2400531 L154.909091,47.2400531 L154.909091,91.8899204 L173.712365,91.8899204 Z M250.66881,17.5145889 L250.66881,0 L230.620286,0 L230.620286,17.5145889 L250.66881,17.5145889 Z M250.046185,91.8899204 L250.046185,29.3554377 L231.242911,29.3554377 L231.242911,91.8899204 L250.046185,91.8899204 Z M295.248758,92.8766578 C300.063724,92.8766578 304.671149,92.1982759 309.071032,90.8415119 C313.470915,89.484748 317.040631,87.6140584 319.780181,85.229443 L319.780181,85.229443 L314.799182,72.2785146 C312.308682,74.2519894 309.569132,75.7937666 306.580532,76.9038462 C303.591932,78.0139257 300.686349,78.5689655 297.863783,78.5689655 C292.633733,78.5689655 288.607425,77.0271883 285.784858,73.943634 C282.962292,70.8600796 281.551008,66.3169761 281.551008,60.3143236 C281.551008,54.3938992 282.983046,49.8919098 285.847121,46.8083554 C288.711196,43.7248011 292.716749,42.1830239 297.863783,42.1830239 C300.686349,42.1830239 303.591932,42.7380637 306.580532,43.8481432 C309.569132,44.9582228 312.308682,46.5 314.799182,48.4734748 L314.799182,48.4734748 L319.780181,35.5225464 C317.206665,33.137931 313.761473,31.2466844 309.444607,29.8488064 C305.12774,28.4509284 300.686349,27.7519894 296.120433,27.7519894 C289.396083,27.7519894 283.481146,29.1293103 278.375621,31.8839523 C273.270096,34.6385942 269.306051,38.5033156 266.483484,43.4781167 C263.660918,48.4529178 262.249635,54.1883289 262.249635,60.6843501 C262.249635,70.6339523 265.175972,78.4867374 271.028647,84.2427056 C276.881321,89.9986737 284.954692,92.8766578 295.248758,92.8766578 Z M353.526454,92.8766578 C357.926337,92.8766578 361.869629,91.9721485 365.356329,90.16313 C368.843028,88.3541114 371.54107,85.8461538 373.450453,82.6392573 L373.450453,82.6392573 L373.450453,91.8899204 L392.004677,91.8899204 L392.004677,29.3554377 L373.450453,29.3554377 L373.450453,38.2360743 C371.54107,35.0291777 368.843028,32.4801061 365.356329,30.5888594 C361.869629,28.6976127 357.926337,27.7519894 353.526454,27.7519894 C348.130371,27.7519894 343.315405,29.1293103 339.081555,31.8839523 C334.847705,34.6385942 331.547793,38.5238727 329.181818,43.5397878 C326.815843,48.5557029 325.632856,54.270557 325.632856,60.6843501 C325.632856,67.0981432 326.815843,72.7513263 329.181818,77.6438992 C331.547793,82.5364721 334.826951,86.2984085 339.019293,88.9297082 C343.211634,91.561008 348.047355,92.8766578 353.526454,92.8766578 Z M359.005554,78.6923077 C354.273604,78.6923077 350.641625,77.1505305 348.109617,74.0669761 C345.577609,70.9834218 344.311605,66.5225464 344.311605,60.6843501 C344.311605,54.8461538 345.598363,50.2824934 348.17188,46.9933687 C350.745396,43.704244 354.356621,42.0596817 359.005554,42.0596817 C363.654487,42.0596817 367.224203,43.6425729 369.714703,46.8083554 C372.205203,49.9741379 373.450453,54.5172414 373.450453,60.4376658 C373.450453,66.3580902 372.205203,70.8806366 369.714703,74.005305 C367.224203,77.1299735 363.654487,78.6923077 359.005554,78.6923077 Z M426,91.8899204 L426,1.11007958 L407.196726,1.11007958 L407.196726,91.8899204 L426,91.8899204 Z" id="Clinical"></path>
                    <path d="M452.713488,92.3336898 L452.713488,4 L445,4 L445,92.3336898 L452.713488,92.3336898 Z M481.950096,92.3336898 L481.950096,56.3550802 C481.950096,49.9037433 483.857733,44.7757576 487.673006,40.971123 C491.48828,37.1664884 496.506194,35.2641711 502.726749,35.2641711 C508.117897,35.2641711 512.078317,36.7115865 514.608009,39.6064171 C517.137701,42.5012478 518.402548,47.0502674 518.402548,53.2534759 L518.402548,53.2534759 L518.402548,92.3336898 L525.991624,92.3336898 L525.991624,52.7572193 C525.991624,36.7115865 518.485488,28.6887701 503.473216,28.6887701 C498.496772,28.6887701 494.100913,29.7846702 490.28564,31.9764706 C486.470366,34.1682709 483.608911,37.373262 481.701274,41.5914439 L481.701274,41.5914439 L480.705985,30.1775401 L473.490141,30.1775401 C474.153667,35.2228164 474.48543,40.971123 474.48543,47.4224599 L474.48543,47.4224599 L474.48543,92.3336898 L481.950096,92.3336898 Z M572.521375,92.3336898 L599.269761,30.1775401 L591.556273,30.1775401 L568.913453,84.7657754 L546.395044,30.1775401 L538.308323,30.1775401 L564.683476,92.3336898 L572.521375,92.3336898 Z M638.334846,93.202139 C642.813645,93.202139 647.168034,92.4370766 651.398011,90.9069519 C655.627988,89.3768271 659.111499,87.3297683 661.848543,84.7657754 L661.848543,84.7657754 L658.862677,78.8106952 C652.642122,83.9386809 645.799511,86.5026738 638.334846,86.5026738 C630.95312,86.5026738 625.333886,84.2901961 621.477142,79.8652406 C617.620398,75.4402852 615.692026,69.0509804 615.692026,60.6973262 L615.692026,60.6973262 L615.692026,60.3251337 L662.968243,60.3251337 L662.968243,58.7122995 C662.968243,49.2834225 660.666638,41.9222816 656.063427,36.628877 C651.460216,31.3354724 645.053045,28.6887701 636.841912,28.6887701 C631.119002,28.6887701 626.059617,30.0327986 621.663759,32.7208556 C617.2679,35.4089127 613.846595,39.2135472 611.399843,44.1347594 C608.953091,49.0559715 607.729716,54.7008913 607.729716,61.0695187 C607.729716,71.0773619 610.46676,78.9347594 615.940848,84.6417112 C621.414936,90.3486631 628.879602,93.202139 638.334846,93.202139 Z M655.752399,54.4941176 L616.18967,54.4941176 C617.102018,48.2909091 619.341418,43.4730838 622.907869,40.0406417 C626.474321,36.6081996 631.119002,34.8919786 636.841912,34.8919786 C642.481882,34.8919786 646.919211,36.5668449 650.1539,39.9165775 C653.388588,43.2663102 655.254755,48.1254902 655.752399,54.4941176 L655.752399,54.4941176 Z M699.545106,93.202139 C706.84389,93.202139 712.649741,91.6099822 716.962659,88.4256684 C721.275577,85.2413547 723.432036,81.0438503 723.432036,75.8331551 C723.432036,67.314082 717.833537,61.8139037 706.636538,59.3326203 L706.636538,59.3326203 L695.937184,56.7272727 C692.370732,55.9001783 689.737364,54.6181818 688.037079,52.8812834 C686.336794,51.144385 685.486652,48.8698752 685.486652,46.057754 C685.486652,42.6666667 686.813703,40.0199643 689.467807,38.1176471 C692.12191,36.2153298 695.854243,35.2641711 700.664805,35.2641711 C707.465945,35.2641711 713.727971,37.7454545 719.450881,42.7080214 L719.450881,42.7080214 L722.312336,36.8770053 C719.824114,34.230303 716.693102,32.2039216 712.919299,30.797861 C709.145495,29.3918004 705.060664,28.6887701 700.664805,28.6887701 C693.697784,28.6887701 688.12002,30.3222816 683.931513,33.5893048 C679.743006,36.856328 677.648752,41.2192513 677.648752,46.6780749 C677.648752,50.6481283 679.07948,54.1219251 681.940935,57.0994652 C684.802391,60.0770053 688.72134,62.1447415 693.697784,63.3026738 L693.697784,63.3026738 L704.272727,65.659893 C708.336823,66.6524064 711.260484,67.9550802 713.04371,69.5679144 C714.826935,71.1807487 715.718548,73.3932264 715.718548,76.2053476 C715.718548,79.5964349 714.370761,82.1811052 711.675188,83.9593583 C708.979614,85.7376114 705.060664,86.626738 699.918339,86.626738 C695.52248,86.626738 691.645001,86.0477718 688.285901,84.8898396 C684.926802,83.7319073 681.588437,81.7882353 678.270808,79.0588235 L678.270808,79.0588235 L675.533764,84.8898396 C681.422556,90.4313725 689.426336,93.202139 699.545106,93.202139 Z M761.25301,93.0780749 C763.990054,93.0780749 766.685628,92.7472371 769.339731,92.0855615 L769.339731,92.0855615 L769.339731,85.2620321 C767.183272,86.0064171 764.943873,86.3786096 762.621532,86.3786096 C758.889199,86.3786096 756.069214,85.427451 754.161577,83.5251337 C752.253941,81.6228164 751.300122,78.1903743 751.300122,73.2278075 L751.300122,73.2278075 L751.300122,36.2566845 L769.712965,36.2566845 L769.712965,30.1775401 L751.300122,30.1775401 L751.300122,10.8235294 L743.711045,13.6770053 L743.711045,30.1775401 L731.394347,30.1775401 L731.394347,36.2566845 L743.711045,36.2566845 L743.711045,74.7165775 C743.711045,80.8370766 745.266184,85.427451 748.376461,88.4877005 C751.486739,91.5479501 755.778922,93.0780749 761.25301,93.0780749 Z M791.609318,14.173262 L791.609318,4.49625668 L781.532019,4.49625668 L781.532019,14.173262 L791.609318,14.173262 Z M790.116385,92.3336898 L790.116385,30.1775401 L782.651719,30.1775401 L782.651719,92.3336898 L790.116385,92.3336898 Z M837.890246,120 C846.599023,120 853.192811,117.684135 857.671611,113.052406 C862.15041,108.420677 864.38981,101.597148 864.38981,92.5818182 L864.38981,92.5818182 L864.38981,30.1775401 L856.800733,30.1775401 L856.800733,41.3433155 C854.893096,37.2078431 852.093846,34.0648841 848.402984,31.9144385 C844.712121,29.7639929 840.254057,28.6887701 835.028791,28.6887701 C829.554702,28.6887701 824.70267,29.9707665 820.472692,32.5347594 C816.242715,35.0987522 812.945821,38.7172906 810.58201,43.3903743 C808.218199,48.0634581 807.036294,53.4602496 807.036294,59.5807487 C807.036294,65.6185383 808.218199,70.973975 810.58201,75.6470588 C812.945821,80.3201426 816.242715,83.9593583 820.472692,86.5647059 C824.70267,89.1700535 829.554702,90.4727273 835.028791,90.4727273 C840.254057,90.4727273 844.732856,89.3354724 848.465189,87.0609626 C852.197522,84.7864528 855.017507,81.540107 856.925144,77.3219251 L856.925144,77.3219251 L856.925144,93.3262032 C856.925144,99.8602496 855.328535,104.822816 852.135317,108.213904 C848.942099,111.604991 844.235212,113.300535 838.014657,113.300535 C833.618798,113.300535 829.720584,112.804278 826.320014,111.811765 C822.919444,110.819251 819.187111,109.123708 815.123015,106.725134 L815.123015,106.725134 L813.630082,113.300535 C820.514163,117.766845 828.600884,120 837.890246,120 Z M836.02408,83.6491979 C829.471762,83.6491979 824.329436,81.5194296 820.597103,77.259893 C816.864771,73.0003565 814.998604,67.1073084 814.998604,59.5807487 C814.998604,52.0541889 816.864771,46.1197861 820.597103,41.7775401 C824.329436,37.4352941 829.471762,35.2641711 836.02408,35.2641711 C842.493457,35.2641711 847.573576,37.4352941 851.264439,41.7775401 C854.955302,46.1197861 856.800733,52.0541889 856.800733,59.5807487 C856.800733,67.0245989 854.955302,72.8969697 851.264439,77.197861 C847.573576,81.4987522 842.493457,83.6491979 836.02408,83.6491979 Z M908.804572,93.202139 C913.946897,93.202139 918.363491,92.1062389 922.054354,89.9144385 C925.745216,87.7226381 928.502995,84.5590018 930.327692,80.4235294 L930.327692,80.4235294 L930.327692,92.3336898 L937.916768,92.3336898 L937.916768,30.1775401 L930.327692,30.1775401 L930.327692,41.3433155 C928.420055,37.2078431 925.620805,34.0648841 921.929942,31.9144385 C918.23908,29.7639929 913.863956,28.6887701 908.804572,28.6887701 C903.330483,28.6887701 898.499186,30.0327986 894.310679,32.7208556 C890.122172,35.4089127 886.866748,39.2135472 884.544408,44.1347594 C882.222067,49.0559715 881.060897,54.742246 881.060897,61.1935829 C881.060897,67.6449198 882.201332,73.2898396 884.482202,78.1283422 C886.763072,82.9668449 889.997761,86.6887701 894.186268,89.2941176 C898.374775,91.8994652 903.247543,93.202139 908.804572,93.202139 Z M909.924272,86.5026738 C903.289013,86.5026738 898.146688,84.2901961 894.497295,79.8652406 C890.847903,75.4402852 889.023207,69.2163993 889.023207,61.1935829 C889.023207,53.088057 890.847903,46.740107 894.497295,42.1497326 C898.146688,37.5593583 903.247543,35.2641711 909.79986,35.2641711 C916.352178,35.2641711 921.411563,37.4973262 924.978014,41.9636364 C928.544466,46.4299465 930.327692,52.7572193 930.327692,60.9454545 C930.327692,69.0509804 928.544466,75.3368984 924.978014,79.8032086 C921.411563,84.2695187 916.393649,86.5026738 909.924272,86.5026738 Z M979.096842,93.0780749 C981.833886,93.0780749 984.52946,92.7472371 987.183563,92.0855615 L987.183563,92.0855615 L987.183563,85.2620321 C985.027104,86.0064171 982.787704,86.3786096 980.465364,86.3786096 C976.733031,86.3786096 973.913046,85.427451 972.005409,83.5251337 C970.097772,81.6228164 969.143954,78.1903743 969.143954,73.2278075 L969.143954,73.2278075 L969.143954,36.2566845 L987.556796,36.2566845 L987.556796,30.1775401 L969.143954,30.1775401 L969.143954,10.8235294 L961.554877,13.6770053 L961.554877,30.1775401 L949.238178,30.1775401 L949.238178,36.2566845 L961.554877,36.2566845 L961.554877,74.7165775 C961.554877,80.8370766 963.110016,85.427451 966.220293,88.4877005 C969.330571,91.5479501 973.622753,93.0780749 979.096842,93.0780749 Z M1025.25336,93.202139 C1030.89333,93.202139 1035.86977,91.8787879 1040.18269,89.2320856 C1044.49561,86.5853832 1047.83397,82.8221034 1050.19778,77.942246 C1052.56159,73.0623886 1053.7435,67.3967914 1053.7435,60.9454545 C1053.7435,54.4941176 1052.56159,48.8285205 1050.19778,43.9486631 C1047.83397,39.0688057 1044.49561,35.3055258 1040.18269,32.6588235 C1035.86977,30.0121212 1030.89333,28.6887701 1025.25336,28.6887701 C1019.53045,28.6887701 1014.4918,30.0121212 1010.13741,32.6588235 C1005.78302,35.3055258 1002.42392,39.0688057 1000.06011,43.9486631 C997.696301,48.8285205 996.514395,54.4941176 996.514395,60.9454545 C996.514395,67.3967914 997.696301,73.0623886 1000.06011,77.942246 C1002.42392,82.8221034 1005.78302,86.5853832 1010.13741,89.2320856 C1014.4918,91.8787879 1019.53045,93.202139 1025.25336,93.202139 Z M1025.12895,86.5026738 C1018.49369,86.5026738 1013.39283,84.3108734 1009.82638,79.9272727 C1006.25993,75.543672 1004.47671,69.2163993 1004.47671,60.9454545 C1004.47671,52.8399287 1006.3014,46.5333333 1009.95079,42.0256684 C1013.60019,37.5180036 1018.70104,35.2641711 1025.25336,35.2641711 C1031.72274,35.2641711 1036.78212,37.5180036 1040.43151,42.0256684 C1044.08091,46.5333333 1045.9056,52.8399287 1045.9056,60.9454545 C1045.9056,69.1336898 1044.10164,75.4402852 1040.49372,79.8652406 C1036.8858,84.2901961 1031.76421,86.5026738 1025.12895,86.5026738 Z M1077.87925,92.3336898 L1077.87925,55.8588235 C1077.87925,50.3172906 1079.43439,45.54082 1082.54467,41.5294118 C1085.65495,37.5180036 1090.36183,35.5122995 1096.66533,35.5122995 C1098.90473,35.5122995 1100.81237,35.6777184 1102.38824,36.0085561 L1102.38824,36.0085561 L1102.76147,29.1850267 C1101.1856,28.8541889 1099.3609,28.6887701 1097.28738,28.6887701 C1092.80858,28.6887701 1088.80669,29.8053476 1085.28171,32.0385027 C1081.75673,34.2716578 1079.2063,37.4973262 1077.63043,41.715508 L1077.63043,41.715508 L1076.63514,30.1775401 L1069.4193,30.1775401 C1070.08282,35.2228164 1070.41459,40.971123 1070.41459,47.4224599 L1070.41459,47.4224599 L1070.41459,92.3336898 L1077.87925,92.3336898 Z M1134.11307,93.202139 C1141.41185,93.202139 1147.2177,91.6099822 1151.53062,88.4256684 C1155.84354,85.2413547 1158,81.0438503 1158,75.8331551 C1158,67.314082 1152.4015,61.8139037 1141.2045,59.3326203 L1141.2045,59.3326203 L1130.50515,56.7272727 C1126.9387,55.9001783 1124.30533,54.6181818 1122.60504,52.8812834 C1120.90476,51.144385 1120.05462,48.8698752 1120.05462,46.057754 C1120.05462,42.6666667 1121.38167,40.0199643 1124.03577,38.1176471 C1126.68987,36.2153298 1130.42221,35.2641711 1135.23277,35.2641711 C1142.03391,35.2641711 1148.29593,37.7454545 1154.01884,42.7080214 L1154.01884,42.7080214 L1156.8803,36.8770053 C1154.39208,34.230303 1151.26107,32.2039216 1147.48726,30.797861 C1143.71346,29.3918004 1139.62863,28.6887701 1135.23277,28.6887701 C1128.26575,28.6887701 1122.68798,30.3222816 1118.49948,33.5893048 C1114.31097,36.856328 1112.21672,41.2192513 1112.21672,46.6780749 C1112.21672,50.6481283 1113.64744,54.1219251 1116.5089,57.0994652 C1119.37035,60.0770053 1123.2893,62.1447415 1128.26575,63.3026738 L1128.26575,63.3026738 L1138.84069,65.659893 C1142.90479,66.6524064 1145.82845,67.9550802 1147.61167,69.5679144 C1149.3949,71.1807487 1150.28651,73.3932264 1150.28651,76.2053476 C1150.28651,79.5964349 1148.93873,82.1811052 1146.24315,83.9593583 C1143.54758,85.7376114 1139.62863,86.626738 1134.4863,86.626738 C1130.09044,86.626738 1126.21296,86.0477718 1122.85386,84.8898396 C1119.49477,83.7319073 1116.1564,81.7882353 1112.83877,79.0588235 L1112.83877,79.0588235 L1110.10173,84.8898396 C1115.99052,90.4313725 1123.9943,93.202139 1134.11307,93.202139 Z" id="Investigators"></path>
                </g>
                <g id="emblem">
                    <path d="M80,0 C124.18278,0 160,35.81722 160,80 C160,124.18278 124.18278,160 80,160 C35.81722,160 0,124.18278 0,80 C0,35.81722 35.81722,0 80,0 Z M81,20 C47.862915,20 21,46.862915 21,80 C21,113.137085 47.862915,140 81,140 C114.137085,140 141,113.137085 141,80 C141,46.862915 114.137085,20 81,20 Z M81.5,39.5 C103.59139,39.5 121.5,57.40861 121.5,79.5 C121.5,101.59139 103.59139,119.5 81.5,119.5 C59.40861,119.5 41.5,101.59139 41.5,79.5 C41.5,57.40861 59.40861,39.5 81.5,39.5 Z M81.5,60.5 C70.454305,60.5 61.5,69.454305 61.5,80.5 C61.5,91.545695 70.454305,100.5 81.5,100.5 C92.545695,100.5 101.5,91.545695 101.5,80.5 C101.5,69.454305 92.545695,60.5 81.5,60.5 Z" id="Combined-Shape"></path>
                    <rect id="Rectangle" x="115" y="70" width="31" height="20"></rect>
                </g>
            </g>
        </g>
    </g>
</svg>